<svg xmlns="http://www.w3.org/2000/svg" width="34.98" height="52" viewBox="0 0 34.98 52">
  <g id="Group_1" data-name="Group 1" transform="translate(-719.631 -405)">
    <rect id="Rectangle_2" data-name="Rectangle 2" width="4" height="9" transform="translate(735 448)" fill="#34a853"/>
    <rect id="Rectangle_1" data-name="Rectangle 1" width="16" height="34" rx="8" transform="translate(729 405)" fill="#4285f4"/>
    <path id="Path_1" data-name="Path 1" d="M719.655,431.647c3.939.086,5.053,0,5.053,0s1.285,10.534,11.39,12.075c4,.61,6.848-.99,9.191-3.1a15.913,15.913,0,0,0,4.6-8.116h4.726s-3.7,15.843-16.8,16.272S719.312,436.614,719.655,431.647Z" fill="#ea4335"/>
    <path id="Path_2" data-name="Path 2" d="M724.594,443.306c2.7-2.2,4.206-3.292,4.206-3.292s-3.455-3.967-4.118-8.381c-2.939.03-5.043,0-5.043,0S719.225,437.44,724.594,443.306Z" fill="#f4b400"/>
  </g>
</svg>
